# xmcd CD database file
#
# Track frame offsets:
#	150
#	22170
#	43935
#	61371
#	81344
#	105557
#	133008
#	163441
#
# Disc length: 2435 seconds
#
# Revision: 1
# Processed by: cddbd v1.5.2PL0 Copyright (c) Steve Scherf et al.
# Submitted via: Feurio! 1.68 - http://www.feurio.com
#
DISCID=73098108
DTITLE=Staple Singers - Let's Do It Again
DYEAR=1900
DGENRE=Soul
TTITLE0=Let's Do It Again
TTITLE1=Funky Love
TTITLE2=A Whole Lot Of Love
TTITLE3=New Orleans
TTITLE4=I Want To Thank You
TTITLE5=Big Mac
TTITLE6=After Sex
TTITLE7=Chase
EXTD=
EXTT0=
EXTT1=
EXTT2=
EXTT3=
EXTT4=
EXTT5=
EXTT6=
EXTT7=
PLAYORDER=
